<svg xmlns="http://www.w3.org/2000/svg" width="12" height="14" viewBox="0 0 12 14" fill="none"><path fill-rule="evenodd" clip-rule="evenodd" d="M2.51547 1.75C2.6385 0.763422 3.4801 0 4.5 0H7.5C8.5269 0 9.37305 0.773938 9.48696 1.77035C9.48618 1.76355 9.48537 1.75677 9.48453 1.75H9.75C10.9926 1.75 12 2.75736 12 4V11.75C12 12.9926 10.9926 14 9.75 14H2.25C1.00736 14 0 12.9926 0 11.75V4C0 2.75736 1.00736 1.75 2.25 1.75H2.51547ZM4.5 1.5H7.5C7.77614 1.5 8 1.72386 8 2V3C8 3.27614 7.77614 3.5 7.5 3.5H4.5C4.22386 3.5 4 3.27614 4 3V2C4 1.72386 4.22386 1.5 4.5 1.5ZM2.51304 3.22965C2.51382 3.23645 2.51463 3.24323 2.51547 3.25H2.25C1.83579 3.25 1.5 3.58579 1.5 4V11.75C1.5 12.1642 1.83579 12.5 2.25 12.5H9.75C10.1642 12.5 10.5 12.1642 10.5 11.75V4C10.5 3.58579 10.1642 3.25 9.75 3.25H9.48453C9.3615 4.23658 8.51991 5 7.5 5H4.5C3.4731 5 2.62695 4.22606 2.51304 3.22965Z" fill="black"/></svg>